<svg width="192" height="192" viewBox="0 0 192 192" fill="none" xmlns="http://www.w3.org/2000/svg">
<rect width="192" height="192" rx="24" fill="#F59E0B"/>
<path d="M96 48C110.359 48 122 59.6406 122 74C122 88.3594 110.359 100 96 100C81.6406 100 70 88.3594 70 74C70 59.6406 81.6406 48 96 48Z" fill="#111827"/>
<path d="M60 120C74.359 120 86 131.641 86 146C86 160.359 74.359 172 60 172C45.6406 172 34 160.359 34 146C34 131.641 45.6406 120 60 120Z" fill="#111827"/>
<path d="M132 120C146.359 120 158 131.641 158 146C158 160.359 146.359 172 132 172C117.641 172 106 160.359 106 146C106 131.641 117.641 120 132 120Z" fill="#111827"/>
<path d="M96 110L70 130L96 150L122 130L96 110Z" fill="#111827" opacity="0.7"/>
</svg>
